name D:\school\WTK\thesis\model\3dpredictsim\Results\MidTarsalJoint\Fal_s1_bCst_PF_Natali2010_ls150_MT_k500_MTP_T5_d00_ig24.mot
datacolumns 128
datarows 4
range 0.00000000 0.03410753
endheader
time	pelvis_tilt	pelvis_list	pelvis_rotation	pelvis_tx	pelvis_ty	pelvis_tz	hip_flexion_l	hip_adduction_l	hip_rotation_l	hip_flexion_r	hip_adduction_r	hip_rotation_r	knee_angle_l	knee_angle_r	ankle_angle_l	ankle_angle_r	subtalar_angle_l	subtalar_angle_r	mtj_angle_l	mtj_angle_r	mtp_angle_l	mtp_angle_r	lumbar_extension	lumbar_bending	lumbar_rotation	arm_flex_l	arm_add_l	arm_rot_l	arm_flex_r	arm_add_r	arm_rot_r	elbow_flex_l	elbow_flex_r	pro_sup_l	pro_sup_r	glut_med1_l/activation	glut_med2_l/activation	glut_med3_l/activation	glut_min1_l/activation	glut_min2_l/activation	glut_min3_l/activation	semimem_l/activation	semiten_l/activation	bifemlh_l/activation	bifemsh_l/activation	sar_l/activation	add_long_l/activation	add_brev_l/activation	add_mag1_l/activation	add_mag2_l/activation	add_mag3_l/activation	tfl_l/activation	pect_l/activation	grac_l/activation	glut_max1_l/activation	glut_max2_l/activation	glut_max3_l/activation	iliacus_l/activation	psoas_l/activation	quad_fem_l/activation	gem_l/activation	peri_l/activation	rect_fem_l/activation	vas_med_l/activation	vas_int_l/activation	vas_lat_l/activation	med_gas_l/activation	lat_gas_l/activation	soleus_l/activation	tib_post_l/activation	flex_dig_l/activation	flex_hal_l/activation	tib_ant_l/activation	per_brev_l/activation	per_long_l/activation	per_tert_l/activation	ext_dig_l/activation	ext_hal_l/activation	ercspn_l/activation	intobl_l/activation	extobl_l/activation	glut_med1_r/activation	glut_med2_r/activation	glut_med3_r/activation	glut_min1_r/activation	glut_min2_r/activation	glut_min3_r/activation	semimem_r/activation	semiten_r/activation	bifemlh_r/activation	bifemsh_r/activation	sar_r/activation	add_long_r/activation	add_brev_r/activation	add_mag1_r/activation	add_mag2_r/activation	add_mag3_r/activation	tfl_r/activation	pect_r/activation	grac_r/activation	glut_max1_r/activation	glut_max2_r/activation	glut_max3_r/activation	iliacus_r/activation	psoas_r/activation	quad_fem_r/activation	gem_r/activation	peri_r/activation	rect_fem_r/activation	vas_med_r/activation	vas_int_r/activation	vas_lat_r/activation	med_gas_r/activation	lat_gas_r/activation	soleus_r/activation	tib_post_r/activation	flex_dig_r/activation	flex_hal_r/activation	tib_ant_r/activation	per_brev_r/activation	per_long_r/activation	per_tert_r/activation	ext_dig_r/activation	ext_hal_r/activation	ercspn_r/activation	intobl_r/activation	extobl_r/activation	
          0.00000000	         -2.92677021	         -1.94927711	          5.52930440	          0.00000000	          0.91719398	         -0.00437959	        -17.33042822	         -0.49583026	          5.95449493	         29.55324576	          2.68848648	         -4.59016620	         -5.13805789	         -9.11091668	          0.44712461	          7.35430348	          4.13565051	         -6.77330939	          3.15417309	         -0.09750800	         16.05566530	          0.56238100	         -1.99439103	         -0.02199512	         -2.07292909	          6.18664974	        -13.44971068	         16.32594167	         -5.43327969	        -13.56088044	          7.69499326	         32.70527265	         16.52443763	         86.51662706	         86.51662706	          0.25250527	          0.10050831	          0.08415212	          0.28141952	          0.19027862	          0.11906516	          0.05000259	          0.05000083	          0.05000059	          0.05210731	          0.11908944	          0.05000114	          0.05000128	          0.05000119	          0.05000276	          0.05000135	          0.33528460	          0.05001306	          0.05000496	          0.05001010	          0.05000596	          0.05000359	          0.52700450	          0.73398903	          0.05000234	          0.05000555	          0.07074994	          0.34098461	          0.05000638	          0.05000550	          0.05000374	          0.31362673	          0.41663687	          0.32188408	          0.30267633	          0.27877691	          0.36455186	          0.05000014	          0.05420971	          0.08439472	          0.05000138	          0.05000026	          0.05000105	          0.05000003	          0.05000006	          0.05000022	          0.05947424	          0.05947419	          0.05000150	          0.05947436	          0.05947430	          0.05947212	          0.27076734	          0.09408184	          0.18437243	          0.10219320	          0.05000095	          0.14166148	          0.20874984	          0.09973553	          0.18033813	          0.11731440	          0.05000077	          0.05001203	          0.13341710	          0.05000979	          0.05115770	          0.15366623	          0.05000126	          0.05000048	          0.18352344	          0.23998281	          0.10822815	          0.05000034	          0.08315438	          0.07729993	          0.07336334	          0.06422261	          0.06387453	          0.06224468	          0.05000006	          0.05000068	          0.05000060	          0.47923973	          0.25554385	          0.19776906	          0.17300942	          0.47470053	          0.12197699	          0.05947586	          0.13021007	          0.11591046	
          0.01136918	         -2.93000479	         -2.05180336	          5.90996053	          0.01686595	          0.91620552	         -0.00421941	        -17.44569482	         -0.84482593	          5.74398079	         29.08637217	          3.00859177	         -4.35439135	         -6.63914021	         -9.72124077	         -0.00258888	          6.68506051	          4.95499052	         -7.06858951	          2.62556956	         -0.14001324	         17.62767399	          0.54698554	         -1.79916644	          0.15982312	         -2.14697242	          6.02326827	        -13.45177274	         16.69981451	         -6.38020162	        -13.55124999	          7.65167070	         34.01474780	         16.09870774	         86.51662706	         86.51662706	          0.21228124	          0.08449735	          0.07074671	          0.23658988	          0.15996732	          0.10009816	          0.05001192	          0.05000327	          0.05000260	          0.05000138	          0.10011900	          0.11724228	          0.05001386	          0.05947499	          0.05615738	          0.05948084	          0.28187395	          0.05002188	          0.05001608	          0.05001524	          0.05001249	          0.05001635	          0.44305253	          0.61778193	          0.05000463	          0.05946014	          0.05947973	          0.32575361	          0.10074228	          0.13245550	          0.11467857	          0.26366575	          0.35026649	          0.28946310	          0.28475114	          0.23436990	          0.30648641	          0.05000020	          0.05000040	          0.09740130	          0.05000058	          0.05000018	          0.05000098	          0.05000100	          0.07074467	          0.05947551	          0.05000004	          0.05000022	          0.09224509	          0.05000021	          0.05000027	          0.05000037	          0.22763394	          0.07909463	          0.15500178	          0.08591397	          0.05951561	          0.11909723	          0.25223966	          0.28942383	          0.17248791	          0.09862812	          0.05000169	          0.07107081	          0.11216656	          0.05001026	          0.05947698	          0.14505442	          0.05000678	          0.07089901	          0.53555021	          0.20175400	          0.09098797	          0.08414758	          0.06991826	          0.08515646	          0.06178240	          0.06262444	          0.07073993	          0.05947493	          0.05948505	          0.05323048	          0.05948663	          0.43270920	          0.21483661	          0.22662072	          0.14544993	          0.39908049	          0.13573581	          0.05000132	          0.10946751	          0.09744584	
          0.02273836	         -2.92990931	         -2.15785739	          6.26099943	          0.03407105	          0.91529892	         -0.00407057	        -17.54278722	         -1.20305493	          5.51420355	         28.52213742	          3.24049782	         -4.08833971	         -8.16704236	        -10.55565005	         -0.57830973	          6.04249892	          5.74988654	         -7.38934827	          1.98801976	         -0.22182525	         19.22593680	          0.50038983	         -1.58053018	          0.35438048	         -2.20927434	          5.78114217	        -13.44971619	         17.01629879	         -7.36837237	        -13.54445883	          7.64463316	         35.28826731	         15.74843210	         86.51662706	         86.51662706	          0.26451976	          0.07103697	          0.05947681	          0.28153567	          0.13448473	          0.08415262	          0.05000629	          0.05000142	          0.05000106	          0.05000117	          0.08417087	          0.09856582	          0.05000160	          0.05000257	          0.05000449	          0.05001036	          0.23697333	          0.05000398	          0.05000213	          0.05001255	          0.05000875	          0.05000634	          0.37247432	          0.62136020	          0.05000060	          0.05000202	          0.05000485	          0.27386115	          0.13446274	          0.11733310	          0.09642563	          0.22166356	          0.29446877	          0.24335138	          0.24293533	          0.19703519	          0.25766356	          0.05000004	          0.07042751	          0.12573936	          0.05000046	          0.05000006	          0.05000041	          0.05000006	          0.05947499	          0.05000114	          0.20321381	          0.17911990	          0.23954917	          0.29691537	          0.18001378	          0.23317536	          0.19137182	          0.06650771	          0.13031004	          0.07223067	          0.05003543	          0.10012526	          0.21205839	          0.24331873	          0.14501152	          0.11838060	          0.05000222	          0.05975689	          0.09522470	          0.05000097	          0.05000284	          0.13468504	          0.05878114	          0.05960488	          0.45023671	          0.16961485	          0.19499034	          0.07074282	          0.05878049	          0.07159123	          0.05194065	          0.05264839	          0.05947119	          0.05000056	          0.05000923	          0.05000402	          0.05001148	          0.49405245	          0.30712221	          0.19051999	          0.28287074	          0.49398562	          0.11411439	          0.05000035	          0.14861987	          0.08192267	
          0.03410753	         -2.92889331	         -2.26321974	          6.57354539	          0.05142326	          0.91450591	         -0.00389099	        -17.59372832	         -1.56427707	          5.27709528	         27.91498470	          3.44903799	         -3.81769295	         -9.74892120	        -11.35241547	         -1.30095446	          5.52358189	          6.51738066	         -7.71780191	          1.30885726	         -0.20712687	         20.75308264	          0.61539179	         -1.35962918	          0.55817479	         -2.26501888	          5.48953300	        -13.45181365	         17.29713015	         -8.35091353	        -13.53552825	          7.66404561	         36.50492812	         15.45364126	         86.51662706	         86.51662706	          0.27665949	          0.05972086	          0.05000250	          0.23669182	          0.11306150	          0.07074726	          0.05000727	          0.05000128	          0.05000098	          0.05000151	          0.07076354	          0.11128331	          0.05001789	          0.05000946	          0.05001317	          0.05000608	          0.19922770	          0.06811730	          0.05000823	          0.05001391	          0.05000968	          0.05000855	          0.31313927	          0.59956762	          0.05000215	          0.05000601	          0.05000136	          0.23023523	          0.16682933	          0.16339208	          0.14033914	          0.18635236	          0.24755965	          0.20458528	          0.20423592	          0.16564763	          0.21661779	          0.05000057	          0.05920891	          0.12511111	          0.05000151	          0.05001620	          0.05000194	          0.06236735	          0.05000060	          0.05000015	          0.28692594	          0.28210376	          0.31309316	          0.24961811	          0.21823257	          0.19604114	          0.16088619	          0.05591394	          0.10955169	          0.06072473	          0.05000798	          0.08417535	          0.17827744	          0.20455835	          0.12191263	          0.14593025	          0.05000415	          0.05023921	          0.08005607	          0.18498824	          0.14611368	          0.14852524	          0.05000072	          0.05010992	          0.37851380	          0.14259539	          0.16392927	          0.05947352	          0.05154385	          0.06222111	          0.05295083	          0.05000026	          0.05000076	          0.05000014	          0.05000056	          0.05000182	          0.05000189	          0.56682980	          0.33229696	          0.21268167	          0.33923628	          0.51306476	          0.25535081	          0.07361998	          0.12494485	          0.06887235	
